<?xml version="1.0" encoding="UTF-8"?>
<!DOCTYPE svg PUBLIC "-//W3C//DTD SVG 1.1//EN" "http://www.w3.org/Graphics/SVG/1.1/DTD/svg11.dtd">
<!-- Creator: CorelDRAW 2018 (64 Bit Versão de avaliação) -->
<svg xmlns="http://www.w3.org/2000/svg" xml:space="preserve" width="254px" height="64px" version="1.1" style="shape-rendering:geometricPrecision; text-rendering:geometricPrecision; image-rendering:optimizeQuality; fill-rule:evenodd; clip-rule:evenodd"
viewBox="0 0 54.6 13.73"
 xmlns:xlink="http://www.w3.org/1999/xlink">
 <defs>
  <style type="text/css">
   <![CDATA[
    .fil0 {fill:white}
   ]]>
  </style>
 </defs>
 <g id="Camada_x0020_1">
  <metadata id="CorelCorpID_0Corel-Layer"/>
  <path class="fil0" d="M6.92 7.48c-0.11,0.13 -0.24,0.2 -0.4,0.2 -0.14,0 -0.27,-0.05 -0.37,-0.16 -0.1,-0.1 -0.15,-0.22 -0.15,-0.36 0,-0.13 0.04,-0.24 0.11,-0.32l2.63 -3.54c0.12,-0.16 0.28,-0.3 0.48,-0.4 0.21,-0.11 0.42,-0.16 0.65,-0.16 0.22,0 0.43,0.05 0.62,0.14 0.19,0.1 0.35,0.23 0.48,0.39l2.63 3.52c0.04,0.05 0.07,0.11 0.1,0.17 0.03,0.06 0.05,0.12 0.05,0.2 0,0.14 -0.05,0.26 -0.15,0.36 -0.11,0.11 -0.23,0.16 -0.37,0.16 -0.18,0 -0.31,-0.07 -0.41,-0.21l-2.52 -3.36c-0.06,-0.06 -0.12,-0.13 -0.19,-0.19 -0.08,-0.07 -0.16,-0.11 -0.24,-0.11 -0.08,0 -0.15,0.04 -0.23,0.11 -0.07,0.06 -0.13,0.13 -0.18,0.19l-2.54 3.37zm2.28 -0.97l0 0c0,0.19 0.07,0.34 0.2,0.47 0.13,0.13 0.29,0.2 0.47,0.2 0.19,0 0.35,-0.07 0.48,-0.2 0.13,-0.13 0.19,-0.28 0.19,-0.47 0,-0.19 -0.06,-0.35 -0.19,-0.48 -0.13,-0.13 -0.29,-0.19 -0.48,-0.19 -0.18,0 -0.34,0.06 -0.47,0.19 -0.13,0.13 -0.2,0.29 -0.2,0.48zm10.01 0.62l0 0c-0.11,0.12 -0.24,0.19 -0.4,0.19 -0.14,0 -0.27,-0.05 -0.37,-0.15 -0.1,-0.1 -0.15,-0.22 -0.15,-0.37 0,-0.13 0.04,-0.23 0.11,-0.31l2.63 -3.54c0.12,-0.17 0.28,-0.3 0.48,-0.41 0.21,-0.1 0.42,-0.15 0.65,-0.15 0.22,0 0.43,0.04 0.62,0.14 0.2,0.09 0.35,0.22 0.48,0.39l2.63 3.51c0.04,0.05 0.08,0.11 0.1,0.17 0.03,0.06 0.05,0.13 0.05,0.2 0,0.15 -0.05,0.27 -0.15,0.37 -0.1,0.1 -0.23,0.15 -0.37,0.15 -0.17,0 -0.31,-0.07 -0.41,-0.21l-2.52 -3.36c-0.05,-0.06 -0.12,-0.12 -0.19,-0.19 -0.08,-0.07 -0.16,-0.1 -0.24,-0.1 -0.08,0 -0.15,0.03 -0.23,0.1 -0.07,0.07 -0.13,0.13 -0.18,0.19l-2.54 3.38zm2.28 -0.98l0 0c0,0.19 0.07,0.35 0.2,0.48 0.13,0.13 0.29,0.19 0.47,0.19 0.19,0 0.35,-0.06 0.48,-0.19 0.13,-0.13 0.19,-0.29 0.19,-0.48 0,-0.19 -0.06,-0.34 -0.19,-0.47 -0.13,-0.13 -0.29,-0.2 -0.48,-0.2 -0.18,0 -0.34,0.07 -0.47,0.2 -0.13,0.13 -0.2,0.28 -0.2,0.47zm11.69 -3.15l0 0c0,-0.14 -0.05,-0.26 -0.15,-0.36 -0.1,-0.1 -0.22,-0.16 -0.37,-0.16l-7.44 0c-0.15,0 -0.27,0.05 -0.37,0.15 -0.1,0.1 -0.15,0.2 -0.15,0.35 0,0.23 0.14,0.38 0.37,0.38l3.36 0 0 3.67c0,0.24 0.26,0.44 0.51,0.44 0.14,0 0.27,-0.05 0.37,-0.15 0.1,-0.1 0.12,-0.22 0.12,-0.37l0 -3.59 3.39 0c0.21,0 0.36,-0.15 0.36,-0.36zm-0.42 4.13l0 0c-0.1,0.12 -0.24,0.19 -0.4,0.19 -0.14,0 -0.26,-0.05 -0.36,-0.15 -0.11,-0.1 -0.16,-0.22 -0.16,-0.37 0,-0.13 0.04,-0.23 0.11,-0.31l2.63 -3.54c0.12,-0.17 0.29,-0.3 0.49,-0.41 0.2,-0.1 0.42,-0.15 0.65,-0.15 0.21,0 0.42,0.04 0.61,0.14 0.2,0.09 0.36,0.22 0.48,0.39l2.63 3.51c0.04,0.05 0.08,0.11 0.11,0.17 0.03,0.06 0.04,0.13 0.04,0.2 0,0.15 -0.05,0.27 -0.15,0.37 -0.1,0.1 -0.22,0.15 -0.37,0.15 -0.17,0 -0.31,-0.07 -0.41,-0.21l-2.52 -3.36c-0.05,-0.06 -0.11,-0.12 -0.19,-0.19 -0.08,-0.07 -0.15,-0.1 -0.23,-0.1 -0.08,0 -0.16,0.03 -0.24,0.1 -0.07,0.07 -0.13,0.13 -0.17,0.19l-2.55 3.38zm2.29 -0.98l0 0c0,0.19 0.06,0.35 0.19,0.48 0.13,0.13 0.29,0.19 0.48,0.19 0.18,0 0.34,-0.06 0.47,-0.19 0.13,-0.13 0.2,-0.29 0.2,-0.48 0,-0.19 -0.07,-0.34 -0.2,-0.47 -0.13,-0.13 -0.29,-0.2 -0.47,-0.2 -0.19,0 -0.35,0.07 -0.48,0.2 -0.13,0.13 -0.19,0.28 -0.19,0.47zm13.44 0.36l0 0c0,-0.01 -0.01,-0.02 -0.02,-0.03 -0.2,-0.3 -0.43,-0.56 -0.69,-0.79 0.07,-0.26 0.11,-0.52 0.11,-0.78 0,-0.13 -0.01,-0.26 -0.03,-0.39 -0.02,-0.18 -0.06,-0.35 -0.12,-0.52 -0.41,-1.27 -1.08,-1.26 -2.27,-1.27 -1.04,-0.01 -4.24,-0.07 -4.49,0.04 -0.16,0.07 -0.3,0.13 -0.42,0.26 -0.1,0.09 -0.19,0.19 -0.26,0.32 -0.02,0.03 -0.04,0.06 -0.06,0.1 -0.08,0.17 -0.13,0.35 -0.13,0.57l0 2.78c0,0.15 0.06,0.27 0.16,0.37 0.1,0.1 0.24,0.15 0.38,0.15 0.14,0 0.17,-0.05 0.27,-0.15 0.1,-0.1 0.07,-0.22 0.07,-0.37l0 -1.3 2.39 0c0.44,0 0.86,0 1.24,0.03 0.39,0.02 0.76,0.08 1.1,0.19 0.22,0.07 0.43,0.16 0.64,0.27 0.12,0.06 0.24,0.13 0.35,0.2 0.09,0.06 0.17,0.13 0.26,0.2 0.11,0.09 0.22,0.19 0.33,0.3 0.11,0.11 0.22,0.24 0.33,0.37 0.02,0.03 0.05,0.07 0.09,0.11 0.03,0.02 0.05,0.04 0.08,0.06 0.03,0.02 0.06,0.03 0.09,0.05 0.05,0.03 0.12,0.04 0.19,0.04 0.14,0 0.27,-0.05 0.37,-0.15 0.1,-0.1 0.15,-0.22 0.15,-0.37 0,-0.1 -0.04,-0.2 -0.11,-0.29zm-1.99 -1.61l0 0c-0.42,-0.16 -0.88,-0.25 -1.39,-0.32 -0.52,-0.08 -1.09,-0.09 -1.73,-0.09l-2.39 0c0,-0.25 0,-0.23 0,-0.31 0,-0.06 0,-0.12 0,-0.18 0,-0.08 0.07,-0.11 0.11,-0.18 0.02,-0.04 0.13,-0.08 0.16,-0.08l0.94 0 3.27 0 0.31 0c0.32,0 0.59,0.12 0.76,0.41 0.04,0.08 0.07,0.14 0.1,0.21 0.01,0.04 0.02,0.08 0.03,0.11 0.03,0.17 0.05,0.31 0.05,0.44 0,0.03 0,0.06 0,0.09 -0.07,-0.04 -0.15,-0.07 -0.22,-0.1zm-26.66 -2.81l0 0c-0.02,-0.03 -0.06,-0.03 -0.1,-0.02l-1.32 0.39c-0.04,0.02 -0.07,0.05 -0.08,0.09 0,0.04 0.01,0.09 0.05,0.11l0.21 0.16 -2.53 3.35c-0.04,0.06 -0.1,0.12 -0.17,0.19 -0.08,0.07 -0.16,0.11 -0.24,0.11 -0.08,0 -0.15,-0.04 -0.23,-0.11 -0.08,-0.07 -0.14,-0.13 -0.19,-0.19l-2.52 -3.36c-0.1,-0.14 -0.24,-0.21 -0.41,-0.21 -0.15,0 -0.27,0.05 -0.37,0.15 -0.1,0.11 -0.15,0.23 -0.15,0.37 0,0.07 0.01,0.14 0.04,0.2 0.03,0.06 0.07,0.12 0.11,0.17l2.63 3.52c0.13,0.16 0.29,0.29 0.48,0.39 0.19,0.09 0.4,0.14 0.61,0.14 0.23,0 0.45,-0.06 0.65,-0.16 0.2,-0.1 0.36,-0.24 0.49,-0.41l2.62 -3.52 0.25 0.19c0.04,0.03 0.08,0.03 0.12,0.02 0.02,-0.01 0.03,-0.02 0.04,-0.04 0.02,-0.02 0.02,-0.04 0.03,-0.06l0.03 -1.38c0,-0.04 -0.02,-0.07 -0.05,-0.09zm-13.77 7.86c-0.15,-0.05 -0.27,-0.12 -0.36,-0.21 -0.09,-0.09 -0.14,-0.2 -0.14,-0.34 0,-0.13 0.05,-0.24 0.15,-0.34 0.09,-0.09 0.21,-0.14 0.34,-0.14 0.13,0 0.25,0.05 0.34,0.14 0.06,0.05 0.1,0.13 0.14,0.25l-0.25 0.09c-0.03,-0.08 -0.05,-0.13 -0.08,-0.15 -0.04,-0.04 -0.09,-0.06 -0.15,-0.06 -0.06,0 -0.11,0.02 -0.15,0.06 -0.05,0.04 -0.07,0.09 -0.07,0.15 0,0.06 0.02,0.11 0.07,0.16 0.04,0.04 0.11,0.09 0.19,0.12 0.17,0.06 0.3,0.14 0.42,0.25 0.12,0.13 0.19,0.28 0.19,0.46 0,0.18 -0.07,0.33 -0.19,0.46 -0.13,0.12 -0.28,0.19 -0.46,0.19 -0.18,0 -0.33,-0.07 -0.46,-0.19 -0.1,-0.11 -0.16,-0.24 -0.19,-0.42l0.26 -0.1c0.02,0.16 0.06,0.26 0.12,0.33 0.08,0.07 0.17,0.11 0.27,0.11 0.1,0 0.19,-0.04 0.27,-0.11 0.07,-0.08 0.11,-0.17 0.11,-0.27 0,-0.11 -0.04,-0.19 -0.11,-0.27 -0.07,-0.07 -0.16,-0.13 -0.26,-0.17zm3.73 -0.72c0.21,0.2 0.32,0.45 0.32,0.75 0,0.29 -0.11,0.54 -0.32,0.75 -0.2,0.2 -0.45,0.31 -0.75,0.31 -0.29,0 -0.54,-0.11 -0.74,-0.31 -0.21,-0.21 -0.32,-0.46 -0.32,-0.75 0,-0.3 0.11,-0.55 0.32,-0.75 0.2,-0.21 0.45,-0.31 0.74,-0.31 0.3,0 0.55,0.1 0.75,0.31zm-0.75 -0.04l0 0c-0.21,0 -0.4,0.07 -0.55,0.23 -0.16,0.15 -0.23,0.34 -0.23,0.56 0,0.21 0.07,0.4 0.23,0.56 0.15,0.15 0.34,0.23 0.55,0.23 0.22,0 0.41,-0.08 0.56,-0.23 0.16,-0.16 0.23,-0.35 0.23,-0.56 0,-0.22 -0.07,-0.41 -0.23,-0.56 -0.15,-0.16 -0.34,-0.23 -0.56,-0.23zm2.48 1.82l0 -2.07 0.27 0 0 1.8 0.74 0 0 0.27 -1.01 0zm3.48 -2.07l0.27 0 0 1.46c-0.03,0.17 -0.1,0.31 -0.21,0.42 -0.14,0.14 -0.3,0.21 -0.5,0.21 -0.19,0 -0.36,-0.07 -0.5,-0.21 -0.13,-0.13 -0.2,-0.3 -0.2,-0.49l0 -1.39 0.27 0 0 1.39c0,0.12 0.04,0.22 0.12,0.3 0.09,0.09 0.19,0.13 0.31,0.13 0.12,0 0.22,-0.04 0.31,-0.13 0.08,-0.08 0.13,-0.18 0.13,-0.3l0 -1.39zm2.53 2.08c-0.2,-0.04 -0.38,-0.14 -0.54,-0.29 -0.2,-0.21 -0.31,-0.46 -0.31,-0.75 0,-0.29 0.11,-0.54 0.31,-0.75 0.21,-0.21 0.46,-0.31 0.75,-0.31 0.27,0 0.53,0.11 0.78,0.33l-0.2 0.19c-0.19,-0.17 -0.38,-0.25 -0.58,-0.25 -0.22,0 -0.4,0.08 -0.56,0.23 -0.15,0.16 -0.23,0.34 -0.23,0.56 0,0.22 0.08,0.4 0.23,0.56 0.16,0.15 0.34,0.23 0.56,0.23 0.2,0 0.39,-0.09 0.58,-0.25l0.2 0.18c-0.25,0.22 -0.51,0.34 -0.78,0.34l-0.02 0 -0.02 0.03c0.07,0.03 0.11,0.07 0.13,0.12 0,0.01 0,0.02 0,0.03 0.01,0.01 0.01,0.02 0.01,0.04 0,0.03 -0.02,0.07 -0.04,0.1 -0.04,0.05 -0.11,0.08 -0.19,0.09 -0.01,0.01 -0.03,0.01 -0.06,0.01 -0.05,0 -0.11,-0.01 -0.19,-0.02l0.05 -0.16c0.05,0.02 0.09,0.03 0.12,0.03 0,0 0.01,0 0.01,0 0.03,-0.01 0.05,-0.02 0.05,-0.05 0.01,0 0.01,-0.01 0.01,-0.02 0,0 0,0 0,-0.01 -0.01,-0.02 -0.05,-0.05 -0.12,-0.07l0.05 -0.14zm4.15 -1.79c0.21,0.2 0.31,0.45 0.31,0.75 0,0.29 -0.1,0.54 -0.31,0.75 -0.21,0.2 -0.46,0.31 -0.75,0.31 -0.29,0 -0.54,-0.11 -0.75,-0.31 -0.21,-0.21 -0.31,-0.46 -0.31,-0.75 0,-0.3 0.1,-0.55 0.31,-0.75 0.21,-0.21 0.46,-0.31 0.75,-0.31 0.29,0 0.54,0.1 0.75,0.31zm-0.75 -0.04l0 0c-0.22,0 -0.41,0.07 -0.56,0.23 -0.15,0.15 -0.23,0.34 -0.23,0.56 0,0.21 0.08,0.4 0.23,0.56 0.16,0.15 0.34,0.23 0.56,0.23 0.22,0 0.4,-0.08 0.56,-0.23 0.15,-0.16 0.23,-0.35 0.23,-0.56 0,-0.22 -0.08,-0.41 -0.23,-0.56 -0.16,-0.16 -0.34,-0.23 -0.56,-0.23zm0.03 -0.7l0 0c0.05,0.05 0.09,0.08 0.12,0.08l0 0c0.02,0 0.03,-0.02 0.03,-0.05 0,-0.02 0,-0.05 -0.01,-0.09l0.24 0c-0.03,0.19 -0.1,0.3 -0.19,0.33 -0.03,0 -0.05,0.01 -0.07,0.01 -0.07,0 -0.13,-0.03 -0.18,-0.08 -0.05,-0.04 -0.09,-0.07 -0.11,-0.07l-0.01 0c-0.02,0 -0.03,0.02 -0.03,0.05 0,0.02 0,0.05 0.01,0.09l-0.24 0c0.03,-0.19 0.1,-0.3 0.19,-0.33 0.03,-0.01 0.05,-0.01 0.08,-0.01 0.06,0 0.12,0.02 0.17,0.07zm3.56 0.45l0 0.27 -0.84 0 0 0.63 0.84 0 0 0.27 -0.84 0 0 0.63 0.84 0 0 0.27 -1.11 0 0 -2.07 1.11 0zm1.95 1.01c-0.15,-0.05 -0.27,-0.12 -0.36,-0.21 -0.09,-0.09 -0.14,-0.2 -0.14,-0.34 0,-0.13 0.05,-0.24 0.15,-0.34 0.09,-0.09 0.2,-0.14 0.34,-0.14 0.13,0 0.25,0.05 0.34,0.14 0.05,0.05 0.1,0.13 0.14,0.25l-0.25 0.09c-0.03,-0.08 -0.05,-0.13 -0.08,-0.15 -0.04,-0.04 -0.09,-0.06 -0.15,-0.06 -0.06,0 -0.11,0.02 -0.15,0.06 -0.05,0.04 -0.07,0.09 -0.07,0.15 0,0.06 0.02,0.11 0.07,0.16 0.04,0.04 0.11,0.09 0.19,0.12 0.16,0.06 0.3,0.14 0.41,0.25 0.13,0.13 0.2,0.28 0.2,0.46 0,0.18 -0.07,0.33 -0.19,0.46 -0.13,0.12 -0.28,0.19 -0.46,0.19 -0.18,0 -0.33,-0.07 -0.46,-0.19 -0.1,-0.11 -0.16,-0.24 -0.19,-0.42l0.26 -0.1c0.02,0.16 0.06,0.26 0.12,0.33 0.08,0.07 0.16,0.11 0.27,0.11 0.1,0 0.19,-0.04 0.27,-0.11 0.07,-0.08 0.11,-0.17 0.11,-0.27 0,-0.11 -0.04,-0.19 -0.11,-0.27 -0.07,-0.07 -0.16,-0.13 -0.26,-0.17zm4.13 -1.01c0.34,0 0.6,0.1 0.79,0.29 0.2,0.21 0.31,0.46 0.31,0.75 0,0.29 -0.11,0.54 -0.31,0.75 -0.19,0.19 -0.45,0.28 -0.79,0.28l-0.2 0 0 -2.07 0.2 0zm0.07 0.28l0 0 0 1.52c0.21,0 0.39,-0.07 0.53,-0.2 0.15,-0.16 0.23,-0.34 0.23,-0.56 0,-0.22 -0.08,-0.4 -0.23,-0.56 -0.14,-0.14 -0.32,-0.2 -0.53,-0.2zm2.71 -0.28l0 2.07 -0.27 0 0 -2.07 0.27 0zm3.23 1.79c-0.21,0.2 -0.46,0.31 -0.73,0.31 -0.29,0 -0.54,-0.11 -0.75,-0.31 -0.21,-0.21 -0.31,-0.46 -0.31,-0.75 0,-0.29 0.1,-0.54 0.31,-0.75 0.21,-0.21 0.46,-0.31 0.75,-0.31 0.27,0 0.53,0.11 0.78,0.33l-0.2 0.19c-0.19,-0.17 -0.38,-0.25 -0.58,-0.25 -0.22,0 -0.4,0.08 -0.56,0.23 -0.15,0.16 -0.23,0.34 -0.23,0.56 0,0.22 0.08,0.4 0.23,0.56 0.16,0.15 0.34,0.23 0.56,0.23 0.18,0 0.34,-0.05 0.46,-0.15l0 -0.63 0.27 0 0 0.74zm1.76 -1.79l0 2.07 -0.27 0 0 -2.07 0.27 0zm2.1 0.27l0 1.8 -0.27 0 0 -1.8 -0.49 0 0 -0.27 1.24 0 0 0.27 -0.48 0zm2.47 -0.27l0.76 2.07 -0.29 0 -0.27 -0.73 -0.54 0 -0.27 0.73 -0.29 0 0.76 -2.07 0.14 0zm0.11 1.07l0 0 -0.18 -0.48 -0.18 0.48 0.36 0zm2.26 -1.07l0 2.07 -0.27 0 0 -2.07 0.27 0zm2 1.01c-0.14,-0.05 -0.26,-0.12 -0.35,-0.21 -0.09,-0.09 -0.14,-0.2 -0.14,-0.34 0,-0.13 0.05,-0.24 0.14,-0.34 0.1,-0.09 0.21,-0.14 0.35,-0.14 0.13,0 0.24,0.05 0.34,0.14 0.05,0.05 0.1,0.13 0.13,0.25l-0.24 0.09c-0.03,-0.08 -0.06,-0.13 -0.08,-0.15 -0.04,-0.04 -0.1,-0.06 -0.15,-0.06 -0.07,0 -0.12,0.02 -0.16,0.06 -0.04,0.04 -0.06,0.09 -0.06,0.15 0,0.06 0.02,0.11 0.06,0.16 0.05,0.04 0.11,0.09 0.2,0.12 0.16,0.06 0.3,0.14 0.41,0.25 0.13,0.13 0.19,0.28 0.19,0.46 0,0.18 -0.06,0.33 -0.19,0.46 -0.13,0.12 -0.28,0.19 -0.45,0.19 -0.18,0 -0.34,-0.07 -0.46,-0.19 -0.1,-0.11 -0.17,-0.24 -0.19,-0.42l0.26 -0.1c0.01,0.16 0.05,0.26 0.12,0.33 0.07,0.07 0.16,0.11 0.27,0.11 0.1,0 0.19,-0.04 0.26,-0.11 0.08,-0.08 0.11,-0.17 0.11,-0.27 0,-0.11 -0.03,-0.19 -0.11,-0.27 -0.07,-0.07 -0.15,-0.13 -0.26,-0.17zm7.28 3.78l-54.6 0 0 -13.73 54.6 0 0 13.73zm-54.38 -0.22l0 0 54.16 0 0 -13.29 -54.16 0 0 13.29z"/>
 </g>
</svg>
